<svg width="78" height="36" viewBox="0 0 78 36" fill="none" xmlns="http://www.w3.org/2000/svg">
<path fill-rule="evenodd" clip-rule="evenodd" d="M77.993 8.97361H78V5.65495C78 4.90422 77.6998 4.19559 77.1761 3.66937L74.2994 0.813787C73.7757 0.294589 73.0774 0.00692578 72.3443 0.00692578H64.7964V0.00701618H2.87673V0C1.28475 0 0 1.22082 0 2.7293V7.88615V28.1209V33.2707C0 34.7792 1.41742 36 3.16999 36H74.823C76.5756 36 77.993 34.7792 77.993 33.2707V8.97361Z" fill="#00E160"/>
<path fill-rule="evenodd" clip-rule="evenodd" d="M51.6293 18.9365H45.5037C45.3362 18.9365 45.1756 19.0067 45.0429 19.133L42.1173 22.0096C41.9637 22.157 41.8799 22.3815 41.8799 22.606V32.9759C41.8799 33.4109 42.1941 33.7687 42.5781 33.7687H75.2067H75.2137C75.5977 33.7687 75.9119 33.4109 75.9119 32.9759V22.606C75.9119 22.3745 75.8212 22.157 75.6745 22.0096L72.7489 19.133C72.6232 19.0067 72.4557 18.9365 72.2881 18.9365H66.1628L64.9149 20.9011C64.6844 21.2659 64.2166 21.4904 63.6999 21.4904H54.0922C53.5755 21.4904 53.1077 21.2589 52.8773 20.9011L51.6293 18.9365ZM53.7289 26.3527H49.6233C49.4151 26.3527 49.2462 26.5223 49.2462 26.7316V29.3416C49.2462 29.5508 49.4151 29.7204 49.6233 29.7204H53.7289C53.9372 29.7204 54.106 29.5508 54.106 29.3416V26.7316C54.106 26.5223 53.9372 26.3527 53.7289 26.3527ZM64.0698 26.3527H68.1754C68.3837 26.3527 68.5525 26.5223 68.5525 26.7316V29.3416C68.5525 29.5508 68.3837 29.7204 68.1754 29.7204H64.0698C63.8616 29.7204 63.6928 29.5508 63.6928 29.3416V26.7316C63.6928 26.5223 63.8616 26.3527 64.0698 26.3527Z" fill="#0B0B0B"/>
<path d="M14.8158 13.7583C14.6831 13.625 14.6133 13.4496 14.6133 13.2601V2.8481C14.6133 2.46221 14.9275 2.14648 15.3115 2.14648H18.4536C18.8376 2.14648 19.1518 2.46221 19.1518 2.8481V10.9799C19.1518 11.1693 19.2286 11.3447 19.3543 11.478L20.2271 12.355C20.667 12.7971 21.4211 12.4813 21.4211 11.8569V2.8481C21.4211 2.46221 21.7353 2.14648 22.1193 2.14648H25.2614C25.6454 2.14648 25.9596 2.46221 25.9596 2.8481V16.2771C25.9596 16.663 25.6454 16.9787 25.2614 16.9787H18.3C18.1114 16.9787 17.9369 16.9015 17.8042 16.7752L14.8088 13.7653L14.8158 13.7583Z" fill="#0B0B0B"/>
<path d="M38.2415 5.36691C38.3742 5.50022 38.444 5.67562 38.444 5.86506V16.2771C38.444 16.663 38.1298 16.9787 37.7458 16.9787H34.6037C34.2197 16.9787 33.9055 16.663 33.9055 16.2771V8.14532C33.9055 7.95588 33.8287 7.78048 33.703 7.64717L32.8302 6.77015C32.3903 6.32813 31.6362 6.64386 31.6362 7.2683V16.2771C31.6362 16.663 31.322 16.9787 30.938 16.9787H27.7959C27.4119 16.9787 27.0977 16.663 27.0977 16.2771V2.8481C27.0977 2.46221 27.4119 2.14648 27.7959 2.14648H34.7573C34.9458 2.14648 35.1204 2.22366 35.2531 2.34995L38.2485 5.3599L38.2415 5.36691Z" fill="#0B0B0B"/>
<path d="M46.3977 2.8481C46.3977 2.46221 46.7119 2.14648 47.0959 2.14648H50.238C50.622 2.14648 50.9362 2.46221 50.9362 2.8481V9.84324C50.9362 10.0327 50.8594 10.2081 50.7337 10.3414L49.1627 11.92C48.8904 12.1937 48.8904 12.6357 49.1627 12.9093L50.7337 14.488C50.8664 14.6213 50.9362 14.7967 50.9362 14.9861V16.2771C50.9362 16.663 50.622 16.9787 50.238 16.9787H47.0959C46.7119 16.9787 46.3977 16.663 46.3977 16.2771V16.1297C46.3977 15.9403 46.3208 15.7649 46.1952 15.6316L45.3224 14.7546C44.8825 14.3125 44.1284 14.6283 44.1284 15.2527V16.2771C44.1284 16.663 43.8142 16.9787 43.4301 16.9787H40.2881C39.9041 16.9787 39.5898 16.663 39.5898 16.2771V2.8481C39.5898 2.46221 39.9041 2.14648 40.2881 2.14648H43.4301C43.8142 2.14648 44.1284 2.46221 44.1284 2.8481V8.6996C44.1284 8.88904 44.2052 9.06444 44.3309 9.19775L45.2037 10.0748C45.6436 10.5168 46.3977 10.2011 46.3977 9.57662V2.8481Z" fill="#0B0B0B"/>
<path d="M70.2911 14.7546C69.8512 14.3125 69.0971 14.6283 69.0971 15.2527V16.2771C69.0971 16.663 68.7829 16.9787 68.3989 16.9787H65.2568C64.8728 16.9787 64.5586 16.663 64.5586 16.2771V2.8481C64.5586 2.46221 64.8728 2.14648 65.2568 2.14648H72.2182C72.3998 2.14648 72.5813 2.22366 72.714 2.34995L75.7094 5.3599C75.8421 5.4932 75.9119 5.66861 75.9119 5.85805V16.2701C75.9119 16.656 75.5977 16.9717 75.2137 16.9717H72.0716C71.6876 16.9717 71.3734 16.656 71.3734 16.2701V16.1227C71.3734 15.9333 71.3036 15.7579 71.1709 15.6246L70.2981 14.7476L70.2911 14.7546ZM70.1794 10.0748C70.6193 10.5168 71.3734 10.2011 71.3734 9.57662V8.13831C71.3734 7.94887 71.3036 7.77346 71.1709 7.64016L70.2981 6.76313C69.8582 6.32111 69.1041 6.63684 69.1041 7.26128V8.6996C69.1041 8.88904 69.1809 9.06444 69.3066 9.19775L70.1794 10.0748Z" fill="#0B0B0B"/>
<path d="M17.9576 19.21C18.0902 19.0416 18.2927 18.9434 18.5092 18.9434H25.4217C25.8058 18.9434 26.12 19.2591 26.12 19.645V33.074C26.12 33.4598 25.8058 33.7756 25.4217 33.7756H22.2797C21.8956 33.7756 21.5814 33.4598 21.5814 33.074V24.0652C21.5814 23.4407 20.8273 23.125 20.3874 23.567L19.5147 24.444C19.382 24.5774 19.3122 24.7528 19.3122 24.9422V33.074C19.3122 33.4598 18.998 33.7756 18.6139 33.7756H15.4719C15.0878 33.7756 14.7736 33.4598 14.7736 33.074V24.9422C14.7736 24.7528 14.6968 24.5774 14.5711 24.444L13.6983 23.567C13.2585 23.125 12.5044 23.4407 12.5044 24.0652V33.074C12.5044 33.4598 12.1902 33.7756 11.8061 33.7756H8.66406C8.28003 33.7756 7.96582 33.4598 7.96582 33.074V19.645C7.96582 19.2591 8.28003 18.9434 8.66406 18.9434H15.5766C15.7931 18.9434 15.9955 19.0416 16.1282 19.21L16.5053 19.6941C16.7845 20.0519 17.3222 20.0519 17.6015 19.6941L17.9785 19.21H17.9576Z" fill="#0B0B0B"/>
<path d="M34.0666 23.9738C34.0666 23.3774 33.3474 23.0827 32.9285 23.5037L31.9998 24.4368C31.8671 24.5702 31.7973 24.7456 31.7973 24.935V29.6499C31.7973 30.0358 32.1115 30.3515 32.4956 30.3515H37.9139C38.2979 30.3515 38.6121 30.6672 38.6121 31.0531V33.0738C38.6121 33.4597 38.2979 33.7754 37.9139 33.7754H27.957C27.573 33.7754 27.2588 33.4597 27.2588 33.0738V22.6618C27.2588 22.4723 27.3356 22.2969 27.4613 22.1636L30.4567 19.1537C30.5894 19.0204 30.7639 18.9502 30.9525 18.9502H37.9139C38.2979 18.9502 38.6121 19.2659 38.6121 19.6518V23.9527C38.6121 24.3386 38.2979 24.6544 37.9139 24.6544H34.7369C34.3668 24.6544 34.0736 24.3527 34.0736 23.9878L34.0666 23.9738ZM38.6051 28.5062C38.6051 28.8921 38.2909 29.2079 37.9069 29.2079H33.6267C33.2427 29.2079 32.9285 28.8921 32.9285 28.5062V26.4856C32.9285 26.0997 33.2427 25.784 33.6267 25.784H37.9069C38.2909 25.784 38.6051 26.0997 38.6051 26.4856V28.5062Z" fill="#0B0B0B"/>
<path d="M12.7772 2.14648H2.82031C2.43628 2.14648 2.12207 2.46221 2.12207 2.8481V26.4926C2.12207 26.8785 2.43628 27.1943 2.82031 27.1943H5.94142C6.32545 27.1943 6.63966 26.8785 6.63966 26.4926L6.66061 16.2771C6.66061 16.2771 6.66061 16.2771 6.66061 16.2701V14.1021C6.66061 13.4776 7.4147 13.1619 7.85459 13.6039L8.44111 14.1933C8.71342 14.4669 9.15331 14.4669 9.42562 14.1933L13.2659 10.3344C13.3986 10.2011 13.4684 10.0257 13.4684 9.83622V2.8481C13.4684 2.46221 13.1542 2.14648 12.7702 2.14648H12.7772ZM8.92987 8.44C8.92987 9.06444 8.17578 9.38017 7.73589 8.93815L6.86309 8.06113C6.73043 7.92782 6.66061 7.75242 6.66061 7.56298V6.272C6.66061 5.88611 6.97481 5.57038 7.35884 5.57038H8.23164C8.61567 5.57038 8.92987 5.88611 8.92987 6.272V8.44Z" fill="#0B0B0B"/>
<path d="M2.12207 29.9582C2.12207 29.5583 2.44326 29.2285 2.84824 29.2285H5.92048C6.31847 29.2285 6.64664 29.5513 6.64664 29.9582V33.0453C6.64664 33.4452 6.32545 33.775 5.92048 33.775H2.84824C2.45024 33.775 2.12207 33.4523 2.12207 33.0453V29.9582Z" fill="#0B0B0B"/>
<path d="M57.695 12.355C58.1349 12.7971 58.889 12.4813 58.889 11.8569V10.8325C58.889 10.4466 59.2032 10.1309 59.5872 10.1309H62.7293C63.1133 10.1309 63.4275 10.4466 63.4275 10.8325V16.2771C63.4275 16.663 63.1133 16.9787 62.7293 16.9787H55.7679C55.5794 16.9787 55.4048 16.9015 55.2721 16.7752L52.2767 13.7653C52.144 13.632 52.0742 13.4566 52.0742 13.2671V2.8481C52.0742 2.46221 52.3884 2.14648 52.7725 2.14648H62.7293C63.1133 2.14648 63.4275 2.46221 63.4275 2.8481V4.86876C63.4275 5.25465 63.1133 5.57038 62.7293 5.57038H57.311C56.927 5.57038 56.6128 5.88611 56.6128 6.272V10.9869C56.6128 11.1763 56.6896 11.3517 56.8152 11.485L57.688 12.362L57.695 12.355Z" fill="#0B0B0B"/>
</svg>
