<svg width="131" height="61" viewBox="0 0 131 61" fill="none" xmlns="http://www.w3.org/2000/svg">
<path d="M4.83105 0.611328H121.501C122.732 0.611328 123.906 1.09073 124.785 1.95605L129.616 6.71484C130.496 7.59184 131 8.77324 131 10.0244V15.5557H130.988V56.0508C130.988 58.5649 128.607 60.5996 125.664 60.5996H5.32422C2.3808 60.5996 4.63649e-06 58.5649 0 56.0508V5.14844C0 2.63442 2.15752 0.599803 4.83105 0.599609V0.611328Z" fill="black"/>
<path fill-rule="evenodd" clip-rule="evenodd" d="M86.711 32.1602H76.4231C76.1417 32.1602 75.872 32.2771 75.6492 32.4876L70.7356 37.282C70.4776 37.5275 70.3369 37.9017 70.3369 38.2759V55.5591C70.3369 56.2841 70.8646 56.8805 71.5096 56.8805H126.309H126.321C126.966 56.8805 127.493 56.2841 127.493 55.5591V38.2759C127.493 37.89 127.341 37.5275 127.095 37.282L122.181 32.4876C121.97 32.2771 121.689 32.1602 121.407 32.1602H111.12L109.024 35.4344C108.637 36.0425 107.851 36.4167 106.983 36.4167H90.8474C89.9796 36.4167 89.1939 36.0308 88.8069 35.4344L86.711 32.1602ZM90.2372 44.5204H83.3419C82.9921 44.5204 82.7086 44.8031 82.7086 45.1519V49.5019C82.7086 49.8506 82.9921 50.1334 83.3419 50.1334H90.2372C90.587 50.1334 90.8705 49.8506 90.8705 49.5019V45.1519C90.8705 44.8031 90.587 44.5204 90.2372 44.5204ZM107.605 44.5204H114.5C114.85 44.5204 115.133 44.8031 115.133 45.1519V49.5019C115.133 49.8506 114.85 50.1334 114.5 50.1334H107.605C107.255 50.1334 106.971 49.8506 106.971 49.5019V45.1519C106.971 44.8031 107.255 44.5204 107.605 44.5204Z" fill="white"/>
<path d="M24.884 23.5307C24.6612 23.3085 24.5439 23.0162 24.5439 22.7005V5.3471C24.5439 4.70395 25.0717 4.17773 25.7166 4.17773H30.9937C31.6387 4.17773 32.1664 4.70395 32.1664 5.3471V18.9C32.1664 19.2158 32.2954 19.5081 32.5064 19.7303L33.9723 21.192C34.7111 21.9287 35.9776 21.4025 35.9776 20.3617V5.3471C35.9776 4.70395 36.5053 4.17773 37.1502 4.17773H42.4273C43.0723 4.17773 43.6 4.70395 43.6 5.3471V27.7287C43.6 28.3719 43.0723 28.8981 42.4273 28.8981H30.7357C30.4191 28.8981 30.1259 28.7695 29.9031 28.559L24.8723 23.5424L24.884 23.5307Z" fill="white"/>
<path d="M64.2267 9.54511C64.4495 9.76729 64.5668 10.0596 64.5668 10.3754V27.7287C64.5668 28.3719 64.0391 28.8981 63.3941 28.8981H58.117C57.4721 28.8981 56.9444 28.3719 56.9444 27.7287V14.1758C56.9444 13.8601 56.8154 13.5677 56.6043 13.3455L55.1384 11.8838C54.3996 11.1471 53.1332 11.6734 53.1332 12.7141V27.7287C53.1332 28.3719 52.6054 28.8981 51.9605 28.8981H46.6834C46.0384 28.8981 45.5107 28.3719 45.5107 27.7287V5.3471C45.5107 4.70395 46.0384 4.17773 46.6834 4.17773H58.375C58.6917 4.17773 58.9848 4.30636 59.2076 4.51685L64.2384 9.53342L64.2267 9.54511Z" fill="white"/>
<path d="M77.9239 5.3471C77.9239 4.70395 78.4516 4.17773 79.0965 4.17773H84.3736C85.0186 4.17773 85.5463 4.70395 85.5463 5.3471V17.0057C85.5463 17.3214 85.4173 17.6137 85.2062 17.8359L82.5677 20.467C82.1103 20.923 82.1103 21.6597 82.5677 22.1158L85.2062 24.7468C85.429 24.969 85.5463 25.2614 85.5463 25.5771V27.7287C85.5463 28.3719 85.0186 28.8981 84.3736 28.8981H79.0965C78.4516 28.8981 77.9239 28.3719 77.9239 27.7287V27.4832C77.9239 27.1674 77.7949 26.8751 77.5838 26.6529L76.1179 25.1912C75.3791 24.4545 74.1127 24.9807 74.1127 26.0215V27.7287C74.1127 28.3719 73.5849 28.8981 72.94 28.8981H67.6629C67.0179 28.8981 66.4902 28.3719 66.4902 27.7287V5.3471C66.4902 4.70395 67.0179 4.17773 67.6629 4.17773H72.94C73.5849 4.17773 74.1127 4.70395 74.1127 5.3471V15.0996C74.1127 15.4153 74.2416 15.7077 74.4527 15.9298L75.9186 17.3915C76.6574 18.1282 77.9239 17.602 77.9239 16.5613V5.3471Z" fill="white"/>
<path d="M118.053 25.1912C117.315 24.4545 116.048 24.9807 116.048 26.0215V27.7287C116.048 28.3719 115.52 28.8981 114.876 28.8981H109.598C108.953 28.8981 108.426 28.3719 108.426 27.7287V5.3471C108.426 4.70395 108.953 4.17773 109.598 4.17773H121.29C121.595 4.17773 121.9 4.30636 122.123 4.51685L127.153 9.53342C127.376 9.7556 127.494 10.0479 127.494 10.3637V27.717C127.494 28.3602 126.966 28.8864 126.321 28.8864H121.044C120.399 28.8864 119.871 28.3602 119.871 27.717V27.4715C119.871 27.1557 119.754 26.8634 119.531 26.6412L118.065 25.1795L118.053 25.1912ZM117.866 17.3915C118.605 18.1282 119.871 17.602 119.871 16.5613V14.1641C119.871 13.8484 119.754 13.556 119.531 13.3339L118.065 11.8721C117.326 11.1354 116.06 11.6617 116.06 12.7024V15.0996C116.06 15.4153 116.189 15.7077 116.4 15.9298L117.866 17.3915Z" fill="white"/>
<path d="M30.1609 32.6162C30.3837 32.3356 30.7238 32.1719 31.0873 32.1719H42.6969C43.3418 32.1719 43.8695 32.6981 43.8695 33.3412V55.7229C43.8695 56.366 43.3418 56.8922 42.6969 56.8922H37.4198C36.7748 56.8922 36.2471 56.366 36.2471 55.7229V40.7082C36.2471 39.6675 34.9806 39.1413 34.2418 39.878L32.776 41.3397C32.5532 41.5619 32.4359 41.8542 32.4359 42.1699V55.7229C32.4359 56.366 31.9082 56.8922 31.2632 56.8922H25.9862C25.3412 56.8922 24.8135 56.366 24.8135 55.7229V42.1699C24.8135 41.8542 24.6845 41.5619 24.4734 41.3397L23.0076 39.878C22.2688 39.1413 21.0023 39.6675 21.0023 40.7082V55.7229C21.0023 56.366 20.4746 56.8922 19.8296 56.8922H14.5526C13.9076 56.8922 13.3799 56.366 13.3799 55.7229V33.3412C13.3799 32.6981 13.9076 32.1719 14.5526 32.1719H26.1621C26.5256 32.1719 26.8657 32.3356 27.0885 32.6162L27.7217 33.4231C28.1908 34.0195 29.0938 34.0195 29.5629 33.4231L30.1961 32.6162H30.1609Z" fill="white"/>
<path d="M57.2149 40.5562C57.2149 39.5623 56.007 39.0711 55.3034 39.7728L53.7437 41.328C53.5209 41.5502 53.4037 41.8425 53.4037 42.1583V50.0164C53.4037 50.6595 53.9314 51.1858 54.5763 51.1858H63.6763C64.3213 51.1858 64.849 51.712 64.849 52.3551V55.7229C64.849 56.366 64.3213 56.8923 63.6763 56.8923H46.9539C46.309 56.8923 45.7812 56.366 45.7812 55.7229V38.3695C45.7812 38.0538 45.9102 37.7615 46.1213 37.5393L51.1521 32.5227C51.3749 32.3005 51.6681 32.1836 51.9847 32.1836H63.6763C64.3213 32.1836 64.849 32.7098 64.849 33.353V40.5212C64.849 41.1643 64.3213 41.6905 63.6763 41.6905H58.3406C57.7191 41.6905 57.2266 41.1877 57.2266 40.5796L57.2149 40.5562ZM64.8373 48.1103C64.8373 48.7535 64.3096 49.2797 63.6646 49.2797H56.4761C55.8311 49.2797 55.3034 48.7535 55.3034 48.1103V44.7426C55.3034 44.0994 55.8311 43.5732 56.4761 43.5732H63.6646C64.3096 43.5732 64.8373 44.0994 64.8373 44.7426V48.1103Z" fill="white"/>
<path d="M21.4595 4.17773H4.73713C4.09216 4.17773 3.56445 4.70395 3.56445 5.3471V44.7547C3.56445 45.3978 4.09216 45.924 4.73713 45.924H9.97901C10.624 45.924 11.1517 45.3978 11.1517 44.7547L11.1869 27.7287C11.1869 27.7287 11.1869 27.7287 11.1869 27.717V24.1037C11.1869 23.063 12.4534 22.5367 13.1921 23.2734L14.1772 24.2557C14.6345 24.7118 15.3733 24.7118 15.8307 24.2557L22.2804 17.8242C22.5032 17.602 22.6205 17.3097 22.6205 16.994V5.3471C22.6205 4.70395 22.0928 4.17773 21.4478 4.17773H21.4595ZM14.9981 14.6669C14.9981 15.7077 13.7316 16.2339 12.9928 15.4972L11.5269 14.0355C11.3041 13.8133 11.1869 13.521 11.1869 13.2052V11.0536C11.1869 10.4104 11.7146 9.88423 12.3595 9.88423H13.8254C14.4704 9.88423 14.9981 10.4104 14.9981 11.0536V14.6669Z" fill="white"/>
<path d="M3.56445 50.5316C3.56445 49.865 4.10389 49.3154 4.78404 49.3154H9.94383C10.6123 49.3154 11.1634 49.8533 11.1634 50.5316V55.6768C11.1634 56.3433 10.624 56.8929 9.94383 56.8929H4.78404C4.11561 56.8929 3.56445 56.355 3.56445 55.6768V50.5316Z" fill="white"/>
<path d="M96.8981 21.192C97.6369 21.9287 98.9034 21.4025 98.9034 20.3617V18.6545C98.9034 18.0113 99.4311 17.4851 100.076 17.4851H105.353C105.998 17.4851 106.526 18.0113 106.526 18.6545V27.7287C106.526 28.3719 105.998 28.8981 105.353 28.8981H93.6615C93.3449 28.8981 93.0517 28.7695 92.8289 28.559L87.7981 23.5424C87.5753 23.3202 87.458 23.0279 87.458 22.7122V5.3471C87.458 4.70395 87.9857 4.17773 88.6307 4.17773H105.353C105.998 4.17773 106.526 4.70395 106.526 5.3471V8.71487C106.526 9.35802 105.998 9.88423 105.353 9.88423H96.2531C95.6081 9.88423 95.0804 10.4104 95.0804 11.0536V18.9117C95.0804 19.2274 95.2094 19.5198 95.4205 19.742L96.8863 21.2037L96.8981 21.192Z" fill="white"/>
</svg>
