<svg width="78" height="36" viewBox="0 0 78 36" fill="none" xmlns="http://www.w3.org/2000/svg">
<path d="M2.87695 0.00683594H72.3447C73.0777 0.00695033 73.7762 0.294382 74.2998 0.813477L77.1758 3.66895C77.6995 4.19516 78 4.90454 78 5.65527V8.97363H77.9932V33.2705C77.9932 34.7789 76.5757 35.9999 74.8232 36H3.16992C1.41738 36 0 34.779 0 33.2705V2.72949C0 1.22101 1.28497 0 2.87695 0V0.00683594Z" fill="#00E160"/>
<path d="M69.7838 22.3289C69.3927 22.3289 69.0756 22.6489 69.0756 23.0438V24.3112C69.0756 24.5008 69.1502 24.6827 69.283 24.8167L70.1236 25.6653C70.5697 26.1157 71.3325 25.7967 71.3325 25.1598V23.0438C71.3325 22.6489 71.0154 22.3289 70.6243 22.3289H69.7838ZM71.8333 30.9372C71.5567 31.2164 71.1083 31.2164 70.8317 30.9372L70.2845 30.3848C69.8384 29.9344 69.0756 30.2534 69.0756 30.8903V33.0063C69.0756 33.4012 68.7585 33.7213 68.3674 33.7213H65.27C64.8789 33.7213 64.5618 33.4012 64.5618 33.0063V19.6261C64.5618 19.2312 64.8789 18.9111 65.27 18.9111H75.1381C75.5292 18.9111 75.8463 19.2312 75.8463 19.6261V26.5897C75.8463 26.7793 75.7717 26.9611 75.6389 27.0952L71.8333 30.9372Z" fill="#0B0B0B"/>
<path d="M26.2237 24.0205C26.2237 24.6575 26.9865 24.9765 27.4326 24.5261L28.2731 23.6775C28.4059 23.5434 28.4806 23.3616 28.4806 23.172V19.6261C28.4806 19.2312 28.7976 18.9111 29.1887 18.9111H32.2862C32.6773 18.9111 32.9943 19.2312 32.9943 19.6261V33.0063C32.9943 33.4012 32.6773 33.7213 32.2862 33.7213H29.1887C28.7976 33.7213 28.4806 33.4012 28.4806 33.0063V29.7511C28.4806 29.1141 27.7177 28.7952 27.2716 29.2456L26.4311 30.0941C26.2983 30.2282 26.2237 30.4101 26.2237 30.5997V33.0063C26.2237 33.4012 25.9066 33.7213 25.5155 33.7213H22.418C22.0269 33.7213 21.7099 33.4012 21.7099 33.0063V19.6261C21.7099 19.2312 22.0269 18.9111 22.418 18.9111H25.5155C25.9066 18.9111 26.2237 19.2312 26.2237 19.6261V24.0205Z" fill="#0B0B0B"/>
<path d="M16.0676 22.8985C16.0676 22.5839 15.815 22.3289 15.5033 22.3289H14.5188C14.1277 22.3289 13.8107 22.6489 13.8107 23.0438V23.8924C13.8107 24.2872 14.1277 24.6073 14.5188 24.6073H19.8732C20.2643 24.6073 20.5814 24.9274 20.5814 25.3223V33.0063C20.5814 33.4012 20.2643 33.7213 19.8732 33.7213H10.0051C9.61394 33.7213 9.29688 33.4012 9.29688 33.0063V29.8792C9.29688 29.4844 9.61394 29.1643 10.0051 29.1643H13.2464C13.5581 29.1643 13.8107 29.4193 13.8107 29.7339C13.8107 30.0485 14.0633 30.3035 14.3749 30.3035H15.3594C15.7505 30.3035 16.0676 29.9834 16.0676 29.5886V28.74C16.0676 28.3452 15.7505 28.0251 15.3594 28.0251H10.0051C9.61394 28.0251 9.29688 27.705 9.29688 27.3101V19.6261C9.29688 19.2312 9.61394 18.9111 10.0051 18.9111H19.8732C20.2643 18.9111 20.5814 19.2312 20.5814 19.6261V22.7531C20.5814 23.148 20.2643 23.4681 19.8732 23.4681H16.6318C16.3202 23.4681 16.0676 23.2131 16.0676 22.8985Z" fill="#0B0B0B"/>
<path d="M44.2344 20.9014C44.4648 21.259 44.9326 21.4902 45.4492 21.4902H52.1836C52.7003 21.4902 53.169 21.2662 53.3994 20.9014L54.6475 18.9365H59.4365C59.604 18.9365 59.7718 19.0066 59.8975 19.1328L62.8232 22.0098C62.9698 22.1571 63.0605 22.375 63.0605 22.6064V32.9756C63.0605 33.4106 62.7463 33.7686 62.3623 33.7686H35.1641C34.78 33.7686 34.4658 33.4106 34.4658 32.9756V22.6064C34.4658 22.382 34.5496 22.1571 34.7031 22.0098L37.6289 19.1328C37.7615 19.0066 37.9223 18.9365 38.0898 18.9365H42.9863L44.2344 20.9014ZM40.5117 26.3525C40.3035 26.3525 40.1348 26.5222 40.1348 26.7314V29.3418C40.1349 29.5509 40.3036 29.7207 40.5117 29.7207H44.6172C44.8253 29.7207 44.994 29.5509 44.9941 29.3418V26.7314C44.9941 26.5223 44.8254 26.3526 44.6172 26.3525H40.5117ZM52.9824 26.3525C52.7742 26.3525 52.6055 26.5222 52.6055 26.7314V29.3418C52.6056 29.5509 52.7743 29.7207 52.9824 29.7207H57.0879C57.2961 29.7207 57.4647 29.5509 57.4648 29.3418V26.7314C57.4648 26.5222 57.2961 26.3525 57.0879 26.3525H52.9824Z" fill="#0B0B0B"/>
<path d="M14.8158 13.7583C14.6831 13.625 14.6133 13.4496 14.6133 13.2601V2.8481C14.6133 2.46221 14.9275 2.14648 15.3115 2.14648H18.4536C18.8376 2.14648 19.1518 2.46221 19.1518 2.8481V10.9799C19.1518 11.1693 19.2286 11.3447 19.3543 11.478L20.2271 12.355C20.667 12.7971 21.4211 12.4813 21.4211 11.8569V2.8481C21.4211 2.46221 21.7353 2.14648 22.1193 2.14648H25.2614C25.6454 2.14648 25.9596 2.46221 25.9596 2.8481V16.2771C25.9596 16.663 25.6454 16.9787 25.2614 16.9787H18.3C18.1114 16.9787 17.9369 16.9015 17.8042 16.7752L14.8088 13.7653L14.8158 13.7583Z" fill="#0B0B0B"/>
<path d="M38.2415 5.36691C38.3742 5.50022 38.444 5.67562 38.444 5.86506V16.2771C38.444 16.663 38.1298 16.9787 37.7458 16.9787H34.6037C34.2197 16.9787 33.9055 16.663 33.9055 16.2771V8.14532C33.9055 7.95588 33.8287 7.78048 33.703 7.64717L32.8302 6.77015C32.3903 6.32813 31.6362 6.64386 31.6362 7.2683V16.2771C31.6362 16.663 31.322 16.9787 30.938 16.9787H27.7959C27.4119 16.9787 27.0977 16.663 27.0977 16.2771V2.8481C27.0977 2.46221 27.4119 2.14648 27.7959 2.14648H34.7573C34.9458 2.14648 35.1204 2.22366 35.2531 2.34995L38.2485 5.3599L38.2415 5.36691Z" fill="#0B0B0B"/>
<path d="M46.3977 2.8481C46.3977 2.46221 46.7119 2.14648 47.0959 2.14648H50.238C50.622 2.14648 50.9362 2.46221 50.9362 2.8481V9.84324C50.9362 10.0327 50.8594 10.2081 50.7337 10.3414L49.1627 11.92C48.8904 12.1937 48.8904 12.6357 49.1627 12.9093L50.7337 14.488C50.8664 14.6213 50.9362 14.7967 50.9362 14.9861V16.2771C50.9362 16.663 50.622 16.9787 50.238 16.9787H47.0959C46.7119 16.9787 46.3977 16.663 46.3977 16.2771V16.1297C46.3977 15.9403 46.3208 15.7649 46.1952 15.6316L45.3224 14.7546C44.8825 14.3125 44.1284 14.6283 44.1284 15.2527V16.2771C44.1284 16.663 43.8142 16.9787 43.4301 16.9787H40.2881C39.9041 16.9787 39.5898 16.663 39.5898 16.2771V2.8481C39.5898 2.46221 39.9041 2.14648 40.2881 2.14648H43.4301C43.8142 2.14648 44.1284 2.46221 44.1284 2.8481V8.6996C44.1284 8.88904 44.2052 9.06444 44.3309 9.19775L45.2037 10.0748C45.6436 10.5168 46.3977 10.2011 46.3977 9.57662V2.8481Z" fill="#0B0B0B"/>
<path d="M70.2911 14.7546C69.8512 14.3125 69.0971 14.6283 69.0971 15.2527V16.2771C69.0971 16.663 68.7829 16.9787 68.3989 16.9787H65.2568C64.8728 16.9787 64.5586 16.663 64.5586 16.2771V2.8481C64.5586 2.46221 64.8728 2.14648 65.2568 2.14648H72.2182C72.3998 2.14648 72.5813 2.22366 72.714 2.34995L75.7094 5.3599C75.8421 5.4932 75.9119 5.66861 75.9119 5.85805V16.2701C75.9119 16.656 75.5977 16.9717 75.2137 16.9717H72.0716C71.6876 16.9717 71.3734 16.656 71.3734 16.2701V16.1227C71.3734 15.9333 71.3036 15.7579 71.1709 15.6246L70.2981 14.7476L70.2911 14.7546ZM70.1794 10.0748C70.6193 10.5168 71.3734 10.2011 71.3734 9.57662V8.13831C71.3734 7.94887 71.3036 7.77346 71.1709 7.64016L70.2981 6.76313C69.8582 6.32111 69.1041 6.63684 69.1041 7.26128V8.6996C69.1041 8.88904 69.1809 9.06444 69.3066 9.19775L70.1794 10.0748Z" fill="#0B0B0B"/>
<path d="M12.7772 2.14648H2.82031C2.43628 2.14648 2.12207 2.46221 2.12207 2.8481V26.4926C2.12207 26.8785 2.43628 27.1943 2.82031 27.1943H5.94142C6.32545 27.1943 6.63966 26.8785 6.63966 26.4926L6.66061 16.2771C6.66061 16.2771 6.66061 16.2771 6.66061 16.2701V14.1021C6.66061 13.4776 7.4147 13.1619 7.85459 13.6039L8.44111 14.1933C8.71342 14.4669 9.15331 14.4669 9.42562 14.1933L13.2659 10.3344C13.3986 10.2011 13.4684 10.0257 13.4684 9.83622V2.8481C13.4684 2.46221 13.1542 2.14648 12.7702 2.14648H12.7772ZM8.92987 8.44C8.92987 9.06444 8.17578 9.38017 7.73589 8.93815L6.86309 8.06113C6.73043 7.92782 6.66061 7.75242 6.66061 7.56298V6.272C6.66061 5.88611 6.97481 5.57038 7.35884 5.57038H8.23164C8.61567 5.57038 8.92987 5.88611 8.92987 6.272V8.44Z" fill="#0B0B0B"/>
<path d="M2.12207 29.9582C2.12207 29.5583 2.44326 29.2285 2.84824 29.2285H5.92048C6.31847 29.2285 6.64664 29.5513 6.64664 29.9582V33.0453C6.64664 33.4452 6.32545 33.775 5.92048 33.775H2.84824C2.45024 33.775 2.12207 33.4523 2.12207 33.0453V29.9582Z" fill="#0B0B0B"/>
<path d="M57.695 12.355C58.1349 12.7971 58.889 12.4813 58.889 11.8569V10.8325C58.889 10.4466 59.2032 10.1309 59.5872 10.1309H62.7293C63.1133 10.1309 63.4275 10.4466 63.4275 10.8325V16.2771C63.4275 16.663 63.1133 16.9787 62.7293 16.9787H55.7679C55.5794 16.9787 55.4048 16.9015 55.2721 16.7752L52.2767 13.7653C52.144 13.632 52.0742 13.4566 52.0742 13.2671V2.8481C52.0742 2.46221 52.3884 2.14648 52.7725 2.14648H62.7293C63.1133 2.14648 63.4275 2.46221 63.4275 2.8481V4.86876C63.4275 5.25465 63.1133 5.57038 62.7293 5.57038H57.311C56.927 5.57038 56.6128 5.88611 56.6128 6.272V10.9869C56.6128 11.1763 56.6896 11.3517 56.8152 11.485L57.688 12.362L57.695 12.355Z" fill="#0B0B0B"/>
</svg>
