<svg width="24" height="24" viewBox="0 0 24 24" fill="none" xmlns="http://www.w3.org/2000/svg">
<g clip-path="url(#clip0_1114_4226)">
<path fill-rule="evenodd" clip-rule="evenodd" d="M22.3784 0H1.62162C0.72973 0 0 0.72973 0 1.62162V22.3784C0 23.2703 0.72973 24 1.62162 24H22.3784C23.2703 24 24 23.2703 24 22.3784V1.62162C24 0.72973 23.2703 0 22.3784 0Z" fill="#A50064"/>
<path d="M16.6061 11.2698C18.5115 11.2698 20.052 9.72928 20.052 7.82388C20.052 5.91847 18.5115 4.37793 16.6061 4.37793C14.7007 4.37793 13.1602 5.91847 13.1602 7.82388C13.1602 9.72928 14.7007 11.2698 16.6061 11.2698ZM16.6061 6.35631C17.4169 6.35631 18.0737 7.01306 18.0737 7.82388C18.0737 8.63469 17.4169 9.29144 16.6061 9.29144C15.7953 9.29144 15.1385 8.63469 15.1385 7.82388C15.1385 7.01306 15.7953 6.35631 16.6061 6.35631Z" fill="white"/>
<path d="M16.6061 12.7617C14.7007 12.7617 13.1602 14.3023 13.1602 16.2077C13.1602 18.1131 14.7007 19.6536 16.6061 19.6536C18.5115 19.6536 20.052 18.1131 20.052 16.2077C20.052 14.3023 18.5115 12.7617 16.6061 12.7617ZM16.6061 17.6752C15.7953 17.6752 15.1385 17.0185 15.1385 16.2077C15.1385 15.3969 15.7953 14.7401 16.6061 14.7401C17.4169 14.7401 18.0737 15.3969 18.0737 16.2077C18.0737 17.0185 17.4169 17.6752 16.6061 17.6752Z" fill="white"/>
<path d="M9.58417 12.7617C9.00039 12.7617 8.46526 12.9563 8.03553 13.2806C7.6058 12.9563 7.06255 12.7617 6.48688 12.7617C5.05985 12.7617 3.90039 13.9212 3.90039 15.3482V19.6617H5.87877V15.3239C5.87877 14.9996 6.13823 14.7401 6.46255 14.7401C6.78688 14.7401 7.04634 14.9996 7.04634 15.3239V19.6536H9.02471V15.3239C9.02471 14.9996 9.28417 14.7401 9.6085 14.7401C9.93282 14.7401 10.1923 14.9996 10.1923 15.3239V19.6536H12.1626V15.3401C12.1626 13.9212 11.0112 12.7617 9.58417 12.7617Z" fill="white"/>
<path d="M9.58447 4.37793C9.00069 4.37793 8.46555 4.57252 8.03582 4.89685C7.60609 4.57252 7.06285 4.37793 6.48717 4.37793C5.05204 4.37793 3.89258 5.53739 3.89258 6.96442V11.2698H5.87096V6.94009C5.87096 6.61577 6.13042 6.35631 6.45474 6.35631C6.77906 6.35631 7.03852 6.61577 7.03852 6.94009V11.2698H9.0169V6.94009C9.0169 6.61577 9.27636 6.35631 9.60069 6.35631C9.92501 6.35631 10.1845 6.61577 10.1845 6.94009V11.2698H12.1628V6.96442C12.1628 5.53739 11.0115 4.37793 9.58447 4.37793Z" fill="white"/>
</g>
<defs>
<clipPath id="clip0_1114_4226">
<rect width="24" height="24" fill="white"/>
</clipPath>
</defs>
</svg>
